<?xml version="1.0" standalone="no"?>
<!DOCTYPE svg PUBLIC "-//W3C//DTD SVG 20010904//EN"
 "http://www.w3.org/TR/2001/REC-SVG-20010904/DTD/svg10.dtd">
<svg version="1.0" xmlns="http://www.w3.org/2000/svg"
 width="85.000000pt" height="85.000000pt" viewBox="0 0 85.000000 85.000000"
 preserveAspectRatio="xMidYMid meet">

<g transform="translate(0.000000,85.000000) scale(0.100000,-0.100000)"
fill="#000000" stroke="none">
<path d="M372 729 c-67 -13 -139 -58 -178 -110 -50 -68 -64 -110 -64 -187 0
-120 70 -226 179 -275 71 -32 182 -29 255 7 99 48 165 154 166 262 0 75 -19
131 -66 195 -60 82 -187 129 -292 108z m137 -45 c64 -19 124 -71 158 -137 22
-44 25 -61 21 -127 -3 -71 -6 -83 -41 -132 -25 -37 -54 -64 -90 -84 -75 -42
-179 -42 -254 0 -61 34 -116 107 -134 178 -29 119 51 257 173 299 66 23 100
23 167 3z"/>
<path d="M292 535 c-23 -50 29 -100 66 -63 13 13 16 47 6 72 -10 26 -59 20
-72 -9z"/>
<path d="M494 535 c-10 -41 3 -75 29 -75 29 0 47 18 47 46 0 40 -11 54 -41 54
-22 0 -30 -6 -35 -25z"/>
<path d="M290 354 c0 -36 79 -84 140 -84 61 0 140 48 140 84 0 3 -63 6 -140 6
-77 0 -140 -3 -140 -6z"/>
</g>
</svg>
