<?xml version="1.0" standalone="no"?>
<!DOCTYPE svg PUBLIC "-//W3C//DTD SVG 20010904//EN"
 "http://www.w3.org/TR/2001/REC-SVG-20010904/DTD/svg10.dtd">
<svg version="1.0" xmlns="http://www.w3.org/2000/svg"
 width="36.000000pt" height="36.000000pt" viewBox="0 0 36.000000 36.000000"
 preserveAspectRatio="xMidYMid meet">

<g transform="translate(0.000000,36.000000) scale(0.100000,-0.100000)"
fill="#000000" stroke="none">
<path d="M123 294 c-43 -22 -78 -91 -69 -140 29 -149 250 -139 263 13 9 106
-96 175 -194 127z m133 -19 c22 -14 54 -72 54 -100 0 -26 -27 -71 -56 -94 -18
-14 -41 -21 -72 -21 -38 0 -49 5 -78 36 -99 104 30 256 152 179z"/>
<path d="M124 219 c-8 -14 11 -33 25 -25 6 4 11 14 11 22 0 16 -26 19 -36 3z"/>
<path d="M214 219 c-3 -6 -2 -15 4 -21 13 -13 32 -2 32 18 0 16 -26 19 -36 3z"/>
<path d="M140 125 c16 -19 70 -19 96 0 17 13 13 14 -45 15 -55 0 -62 -2 -51
-15z"/>
</g>
</svg>
