<?xml version="1.0" standalone="no"?>
<!DOCTYPE svg PUBLIC "-//W3C//DTD SVG 20010904//EN"
 "http://www.w3.org/TR/2001/REC-SVG-20010904/DTD/svg10.dtd">
<svg version="1.0" xmlns="http://www.w3.org/2000/svg"
 width="85.000000pt" height="84.000000pt" viewBox="0 0 85.000000 84.000000"
 preserveAspectRatio="xMidYMid meet">

<g transform="translate(0.000000,84.000000) scale(0.100000,-0.100000)"
fill="#000000" stroke="none">
<path d="M383 730 c-126 -25 -229 -141 -240 -272 -7 -74 9 -129 56 -198 30
-44 52 -62 105 -90 59 -30 77 -34 139 -34 92 0 161 30 218 91 60 65 83 123 82
208 0 78 -27 144 -84 209 -59 67 -179 105 -276 86z m189 -68 c128 -72 171
-225 101 -353 -52 -96 -145 -146 -253 -136 -183 16 -295 212 -214 375 69 139
233 190 366 114z"/>
<path d="M312 548 c-7 -7 -12 -24 -12 -38 0 -52 61 -71 82 -25 23 51 -32 101
-70 63z"/>
<path d="M512 548 c-7 -7 -12 -24 -12 -38 0 -52 61 -71 82 -25 23 51 -32 101
-70 63z"/>
<path d="M360 339 c-34 -21 -59 -47 -60 -61 0 -5 66 -8 146 -8 l146 0 -14 23
c-44 66 -148 88 -218 46z"/>
</g>
</svg>
