<?xml version="1.0" standalone="no"?>
<!DOCTYPE svg PUBLIC "-//W3C//DTD SVG 20010904//EN"
 "http://www.w3.org/TR/2001/REC-SVG-20010904/DTD/svg10.dtd">
<svg version="1.0" xmlns="http://www.w3.org/2000/svg"
 width="36.000000pt" height="36.000000pt" viewBox="0 0 36.000000 36.000000"
 preserveAspectRatio="xMidYMid meet">

<g transform="translate(0.000000,36.000000) scale(0.100000,-0.100000)"
fill="#000000" stroke="none">
<path d="M111 292 c-87 -47 -91 -172 -6 -228 31 -20 109 -20 141 1 143 94 16
308 -135 227z m135 -17 c12 -8 29 -30 39 -51 36 -76 -24 -164 -112 -164 -38 0
-50 5 -79 34 -28 28 -34 42 -34 75 0 68 26 103 90 125 21 7 71 -3 96 -19z"/>
<path d="M114 219 c-10 -17 13 -36 27 -22 12 12 4 33 -11 33 -5 0 -12 -5 -16
-11z"/>
<path d="M204 219 c-10 -17 13 -36 27 -22 12 12 4 33 -11 33 -5 0 -12 -5 -16
-11z"/>
<path d="M130 125 c-11 -13 -5 -15 44 -15 54 0 73 11 40 24 -28 11 -71 6 -84
-9z"/>
</g>
</svg>
